<?xml version="1.0" encoding="UTF-8"?>
<svg version="1.1" xmlns="http://www.w3.org/2000/svg" width="559" height="108">
<path d="M0 0 C5.75 -0.125 5.75 -0.125 8 1 C8 0.67 8 0.34 8 0 C13.625 -0.25 13.625 -0.25 17 2 C17 1.34 17 0.68 17 0 C17.66 0 18.32 0 19 0 C19 0.66 19 1.32 19 2 C31.87 2 44.74 2 58 2 C58 2.99 58 3.98 58 5 C58.66 5 59.32 5 60 5 C61.65325199 7.2395973 63.18317687 9.47542656 64.6875 11.8125 C65.13738281 12.49957031 65.58726563 13.18664063 66.05078125 13.89453125 C69.12673601 18.60513625 72.14371884 23.35309049 75.1484375 28.109375 C77.43656651 31.68155954 79.77431338 35.21876175 82.125 38.75 C82.53298828 39.36423828 82.94097656 39.97847656 83.36132812 40.61132812 C86.15950076 44.80180636 89.05438808 48.91178416 92 53 C96.02073592 48.05352764 99.17091755 43.07396491 101.90234375 37.3125 C102.77969039 35.46413982 103.75031076 33.66015935 104.75 31.875 C106.93324922 26.85352679 107.53939108 22.85415682 106 17.5625 C104.13849482 14.62714304 104.13849482 14.62714304 100.3125 14.125 C99.219375 14.08375 98.12625 14.0425 97 14 C96.34 15.32 95.68 16.64 95 18 C95.99 17.34 96.98 16.68 98 16 C103.44444444 16.44444444 103.44444444 16.44444444 106 19 C106.32339354 22.03989923 106.45670212 24.14368353 105 26.875 C101.77788992 28.68743692 98.54589953 28.64282389 95 28 C92.1899654 26.20636089 90.49059532 24.98119065 89 22 C88.87940753 17.53807855 89.21339375 14.0403502 91.9375 10.4375 C96.34235302 8.36991593 100.21851338 8.22929985 105 9 C108.46062097 10.87450303 109.6360868 12.10155292 111.10705566 15.7331543 C112.0493641 19.18059905 112.26430257 22.075329 112.28710938 25.64453125 C112.30052368 26.94608154 112.31393799 28.24763184 112.32775879 29.58862305 C112.33032181 30.27677094 112.33288483 30.96491882 112.33552551 31.67391968 C112.34387015 33.84374214 112.36442451 36.01315481 112.38806152 38.18286133 C112.44425009 43.5693696 112.47961769 48.95597775 112.51568604 54.34265137 C112.54701567 58.90200656 112.58627221 63.46116184 112.63594055 68.02035522 C112.65590535 70.15072391 112.66430634 72.28093457 112.67224121 74.41137695 C112.68565552 75.71292725 112.69906982 77.01447754 112.71289062 78.35546875 C112.72382751 80.06706177 112.72382751 80.06706177 112.73498535 81.81323242 C113.0914341 86.09948341 114.05961883 89.6286108 116.5 93.1875 C119.91581746 95.87346974 119.91581746 95.87346974 129 98 C129 67.64 129 37.28 129 6 C113.38328343 6.03955231 113.38328343 6.03955231 97.76660156 6.09008789 C95.80794326 6.09300867 93.84928435 6.09555685 91.890625 6.09765625 C90.87468262 6.10277222 89.85874023 6.10788818 88.81201172 6.11315918 C87.35093994 6.11334045 87.35093994 6.11334045 85.86035156 6.11352539 C84.59460297 6.11685631 84.59460297 6.11685631 83.30328369 6.12025452 C81.07090873 6.00370215 79.14140664 5.62226853 77 5 C77 4.01 77 3.02 77 2 C99.77 2 122.54 2 146 2 C146 2.99 146 3.98 146 5 C144 6 144 6 133 6 C133 36.36 133 66.72 133 98 C141.5767765 97.4731181 141.5767765 97.4731181 150 96 C150.33 93.03 150.66 90.06 151 87 C148.18490007 84.7226499 148.18490007 84.7226499 145 85 C145.99 85.33 146.98 85.66 148 86 C148.75 88.6875 148.75 88.6875 149 92 C147.375 94.875 147.375 94.875 145 97 C142.4375 97.5 142.4375 97.5 140 97 C137.93509859 95.40168689 137.10291539 94.49510648 136.56640625 91.9140625 C136.55983084 88.06087201 136.77889703 85.47104546 138.4375 81.9375 C141.71440085 79.45984326 143.85129033 79.40509073 147.875 79.63671875 C150.63753941 80.10899111 152.13620367 80.90322913 154 83 C155.66553581 87.99660743 155.62770075 92.89271893 154.125 97.9375 C149.61459928 102.31524188 142.69614337 102.10044372 136.6875 102.25 C118.76697974 101.86762759 118.76697974 101.86762759 113 97 C108.38675196 89.99166347 107.26043343 83.78274384 107.29296875 75.5234375 C107.27784744 74.47217682 107.26272614 73.42091614 107.24714661 72.33779907 C107.20453995 69.01664322 107.19545747 65.69640099 107.1875 62.375 C107.16433479 60.10804908 107.13896528 57.84111956 107.11132812 55.57421875 C107.04874322 50.04947024 107.01359483 44.52507485 107 39 C105.68 41.31 104.36 43.62 103 46 C102.34 46 101.68 46 101 46 C100.7834375 46.81597656 100.566875 47.63195313 100.34375 48.47265625 C98.64301393 52.93708843 96.19984752 56.51926408 93.5 60.4375 C92.42175889 62.027265 91.34363599 63.61711019 90.265625 65.20703125 C89.72228516 66.00318848 89.17894531 66.7993457 88.61914062 67.61962891 C86.13595192 71.27027575 83.69347685 74.94771044 81.25 78.625 C80.42208984 79.8673307 79.59398696 81.10953301 78.765625 82.3515625 C78.18296875 83.22554688 77.6003125 84.09953125 77 85 C74.13275314 84.42655063 73.1385485 84.1385485 71 82 C69.02 82.99 69.02 82.99 67 84 C62.23113529 76.90517675 57.53336631 69.77560581 52.97094727 62.54638672 C51.44386834 60.14595706 50.01884369 58.01884369 48 56 C47.98541748 57.15000488 47.97083496 58.30000977 47.95581055 59.48486328 C47.89766238 63.76788805 47.82043076 68.05039616 47.73754883 72.33300781 C47.70437704 74.18350819 47.67632113 76.03410786 47.65356445 77.88476562 C47.6198755 80.55121003 47.5675534 83.2167509 47.51171875 85.8828125 C47.50213387 87.11597702 47.50213387 87.11597702 47.49235535 88.37405396 C47.3678252 93.28347504 46.74448534 96.76407851 44 101 C40.47282377 103.35145082 38.20363578 103.71009408 34 104 C30.72362636 103.23805264 29.16645556 102.14455351 26.625 99.9375 C24.60608188 96.28791724 24.64900528 94.07485617 25.3359375 90.02734375 C26 88 26 88 28.0625 85.9375 C32.00007157 84.68082822 34.86273746 84.6663498 39 85 C39.99 85.66 40.98 86.32 42 87 C42.55462605 90.6446855 42.46725216 92.34238585 40.3125 95.375 C37.61209763 97.27258004 36.22939919 97.35882213 33 97 C32.34 95.68 31.68 94.36 31 93 C30.34 93 29.68 93 29 93 C29.66 94.98 30.32 96.96 31 99 C35.455 98.505 35.455 98.505 40 98 C42.99420122 92.15617272 43.49319524 87.30528115 43.5390625 80.7890625 C43.55141937 79.82149017 43.56377625 78.85391785 43.57650757 77.85702515 C43.59600245 75.81815597 43.60729327 73.77919366 43.61083984 71.74023438 C43.62493039 68.64031424 43.69233566 65.54442384 43.76171875 62.4453125 C44.26743795 50.70104041 44.26743795 50.70104041 39.62890625 40.3125 C38.44813509 39.17751923 37.24049196 38.06938373 36 37 C35.07481195 35.81399246 34.17297542 34.60876208 33.3125 33.375 C32.95800781 32.88773438 32.60351562 32.40046875 32.23828125 31.8984375 C30.35483349 29.01088037 28.70394209 25.99677435 27 23 C26.98541748 24.14476807 26.97083496 25.28953613 26.95581055 26.46899414 C26.89759239 30.73899697 26.82036172 35.00848538 26.73754883 39.27807617 C26.70440974 41.12174088 26.67634387 42.96550436 26.65356445 44.80932617 C26.61981488 47.46836208 26.56749034 50.12650187 26.51171875 52.78515625 C26.50213387 54.01057884 26.50213387 54.01057884 26.49235535 55.26075745 C26.35828512 60.54577118 25.47475415 64.30387822 23 69 C20.07517539 71.59055894 17.74062648 72.18525785 13.9375 72.3125 C8.28776978 71.86410871 8.28776978 71.86410871 6 70 C3.67544264 66.55324254 2.99045104 64.55383955 3.0625 60.375 C4.11913336 56.57111989 4.72411853 55.18392098 8 53 C11.7994102 51.86875877 14.81254305 51.4953308 18.5 53.0625 C20.62568877 55.80818133 20.42333268 57.61333858 20 61 C18 64 18 64 15.625 64.8125 C12.70744102 65.02089707 11.4404341 64.53656962 9 63 C9.495 64.485 9.495 64.485 10 66 C12.80045046 66.85650653 12.80045046 66.85650653 16 67 C18.88642473 64.81567858 19.85101198 63.44696406 21 60 C21.10110047 58.50252899 21.14829853 57.00106925 21.16113281 55.50024414 C21.17074036 54.59242691 21.1803479 53.68460968 21.19024658 52.74928284 C21.19449646 51.77112106 21.19874634 50.79295929 21.203125 49.78515625 C21.21167511 48.27422646 21.21167511 48.27422646 21.22039795 46.73277283 C21.22984494 44.60188853 21.23638074 42.47098964 21.24023438 40.34008789 C21.24995179 37.07868059 21.28098311 33.81790033 21.3125 30.55664062 C21.31902898 28.48698291 21.32427987 26.41732069 21.328125 24.34765625 C21.3404718 23.37151871 21.3528186 22.39538116 21.36553955 21.3896637 C21.36253845 20.47869431 21.35953735 19.56772491 21.35644531 18.62915039 C21.36009094 17.82989639 21.36373657 17.0306424 21.36749268 16.20716858 C20.91242387 13.47401595 19.68134593 12.15973889 18 10 C18 9.01 18 8.02 18 7 C17.25234375 6.95101563 16.5046875 6.90203125 15.734375 6.8515625 C14.74953125 6.77679687 13.7646875 6.70203125 12.75 6.625 C11.77546875 6.55539063 10.8009375 6.48578125 9.796875 6.4140625 C7.08399357 6.0124348 5.3937132 5.25984905 3 4 C0.80252869 4.29805007 0.80252869 4.29805007 -1 5 C-0.67 3.35 -0.34 1.7 0 0 Z M29 6 C33 7 33 7 33 7 Z M47 6 C47.86625 7.12535156 48.7325 8.25070313 49.625 9.41015625 C53.01453409 13.93052962 56.02489055 18.63781171 59 23.4375 C63.9035505 31.3099971 68.91260852 39.07550476 74.28125 46.640625 C75.35416667 48.17708333 76.42708333 49.71354167 77.5 51.25 C78.06203125 52.02601562 78.6240625 52.80203125 79.203125 53.6015625 C83.11345434 59.27347585 83.11345434 59.27347585 82.57421875 62.7265625 C82.05472656 63.47679687 81.53523438 64.22703125 81 65 C80.41863281 65.84820312 79.83726562 66.69640625 79.23828125 67.5703125 C77.94909137 69.28051571 76.6574016 70.98883717 75.36328125 72.6953125 C74.91339844 73.45585938 74.46351562 74.21640625 74 75 C74.33 75.99 74.66 76.98 75 78 C80.63403719 72.68790779 84.72249342 67.04663916 88 60 C88.495 59.01 88.495 59.01 89 58 C86.25748397 51.53075857 82.31966414 45.98512686 77.9140625 40.5703125 C75.09792836 36.78864665 72.79580712 32.73656729 70.42016602 28.66918945 C67.4869337 23.69315915 64.24671712 19.04973649 60.7265625 14.46484375 C58.83290353 11.76145278 57.40997523 8.97997832 56 6 C53.03 6 50.06 6 47 6 Z " fill="#535353" transform="translate(51,0)"/>
<path d="M0 0 C22.77 0 45.54 0 69 0 C69 0.99 69 1.98 69 3 C67 4 67 4 56 4 C56 34.36 56 64.72 56 96 C64.5767765 95.4731181 64.5767765 95.4731181 73 94 C73.33 91.03 73.66 88.06 74 85 C71.18490007 82.7226499 71.18490007 82.7226499 68 83 C69.485 83.495 69.485 83.495 71 84 C71.75 86.6875 71.75 86.6875 72 90 C70.375 92.875 70.375 92.875 68 95 C65.4375 95.5 65.4375 95.5 63 95 C60.93509859 93.40168689 60.10291539 92.49510648 59.56640625 89.9140625 C59.55983084 86.06087201 59.77889703 83.47104546 61.4375 79.9375 C64.71440085 77.45984326 66.85129033 77.40509073 70.875 77.63671875 C73.63753941 78.10899111 75.13620367 78.90322913 77 81 C78.66553581 85.99660743 78.62770075 90.89271893 77.125 95.9375 C72.61459928 100.31524188 65.69614337 100.10044372 59.6875 100.25 C41.76697974 99.86762759 41.76697974 99.86762759 36 95 C31.38675196 87.99166347 30.26043343 81.78274384 30.29296875 73.5234375 C30.27784744 72.47217682 30.26272614 71.42091614 30.24714661 70.33779907 C30.20453995 67.01664322 30.19545747 63.69640099 30.1875 60.375 C30.16433479 58.10804908 30.13896528 55.84111956 30.11132812 53.57421875 C30.04874322 48.04947024 30.01359483 42.52507485 30 37 C28.68 39.31 27.36 41.62 26 44 C25.34 44 24.68 44 24 44 C23.79246094 44.80050781 23.58492187 45.60101563 23.37109375 46.42578125 C21.55854239 51.15080831 18.90388077 55.02171821 16.0625 59.1875 C15.52431641 59.99380859 14.98613281 60.80011719 14.43164062 61.63085938 C12.14188722 65.02737398 9.98846428 68.17710161 7 71 C6.1875 68.5625 6.1875 68.5625 6 65 C6.89016982 63.57351669 7.83378482 62.17975036 8.8125 60.8125 C10.31292012 58.54930397 10.31292012 58.54930397 11 56 C9.13181611 49.29196147 4.23858542 43.88547503 -0.0859375 38.5703125 C-2.89987323 34.7915988 -5.20485631 30.7446268 -7.57104492 26.67578125 C-10.59214981 21.53347506 -13.96097225 16.85394314 -17.6640625 12.171875 C-18.10492188 11.45515625 -18.54578125 10.7384375 -19 10 C-18.67 9.01 -18.34 8.02 -18 7 C-17.67 7 -17.34 7 -17 7 C-16.67 6.34 -16.34 5.68 -16 5 C-10.47458586 12.96339073 -4.97791412 20.92184021 0.17578125 29.1328125 C2.48728553 32.76588347 4.86297894 36.35373513 7.25 39.9375 C7.67482666 40.57695557 8.09965332 41.21641113 8.53735352 41.87524414 C10.61173557 44.98207555 12.71694516 48.04240623 15 51 C19.02073592 46.05352764 22.17091755 41.07396491 24.90234375 35.3125 C25.77969039 33.46413982 26.75031076 31.66015935 27.75 29.875 C29.93324922 24.85352679 30.53939108 20.85415682 29 15.5625 C27.13849482 12.62714304 27.13849482 12.62714304 23.3125 12.125 C22.219375 12.08375 21.12625 12.0425 20 12 C19.34 13.32 18.68 14.64 18 16 C18.99 15.34 19.98 14.68 21 14 C26.44444444 14.44444444 26.44444444 14.44444444 29 17 C29.32339354 20.03989923 29.45670212 22.14368353 28 24.875 C24.77788992 26.68743692 21.54589953 26.64282389 18 26 C15.1899654 24.20636089 13.49059532 22.98119065 12 20 C11.87940753 15.53807855 12.21339375 12.0403502 14.9375 8.4375 C19.34235302 6.36991593 23.21851338 6.22929985 28 7 C31.46062097 8.87450303 32.6360868 10.10155292 34.10705566 13.7331543 C35.0493641 17.18059905 35.26430257 20.075329 35.28710938 23.64453125 C35.30052368 24.94608154 35.31393799 26.24763184 35.32775879 27.58862305 C35.33032181 28.27677094 35.33288483 28.96491882 35.33552551 29.67391968 C35.34387015 31.84374214 35.36442451 34.01315481 35.38806152 36.18286133 C35.44425009 41.5693696 35.47961769 46.95597775 35.51568604 52.34265137 C35.54701567 56.90200656 35.58627221 61.46116184 35.63594055 66.02035522 C35.65590535 68.15072391 35.66430634 70.28093457 35.67224121 72.41137695 C35.68565552 73.71292725 35.69906982 75.01447754 35.71289062 76.35546875 C35.72018188 77.49653076 35.72747314 78.63759277 35.73498535 79.81323242 C36.0914341 84.09948341 37.05961883 87.6286108 39.5 91.1875 C42.91581746 93.87346974 42.91581746 93.87346974 52 96 C52 65.64 52 35.28 52 4 C36.38328343 4.03955231 36.38328343 4.03955231 20.76660156 4.09008789 C18.80794326 4.09300867 16.84928435 4.09555685 14.890625 4.09765625 C13.87468262 4.10277222 12.85874023 4.10788818 11.81201172 4.11315918 C10.35093994 4.11334045 10.35093994 4.11334045 8.86035156 4.11352539 C7.59460297 4.11685631 7.59460297 4.11685631 6.30328369 4.12025452 C4.07090873 4.00370215 2.14140664 3.62226853 0 3 C0 2.01 0 1.02 0 0 Z " fill="#ABABAB" transform="translate(128,2)"/>
<path d="M0 0 C9.57 0 19.14 0 29 0 C29 0.33 29 0.66 29 1 C26.69 1.33 24.38 1.66 22 2 C23.04970453 3.57455679 24.09941781 5.14910774 25.14916992 6.72363281 C26.05833674 8.0874652 26.96735086 9.45139938 27.8762207 10.81542969 C29.98043555 13.97304243 32.08661903 17.12923621 34.19921875 20.28125 C37.89815003 25.80421222 41.5299055 31.35776826 45.05078125 36.99609375 C46.5635395 39.32737851 48.11593983 41.58820378 49.73046875 43.84765625 C50.19855957 44.51434326 50.66665039 45.18103027 51.14892578 45.86791992 C52.07635069 47.18473515 53.01837386 48.49141389 53.97607422 49.78637695 C55.25390625 51.6171875 55.25390625 51.6171875 57 55 C56.23965558 58.9549698 53.82221103 61.93542058 51.5 65.1875 C50.8915625 66.04730469 50.283125 66.90710938 49.65625 67.79296875 C48 70 48 70 46 72 C45.69408936 71.50822266 45.38817871 71.01644531 45.07299805 70.50976562 C38.37002074 59.75704687 31.47361849 49.18986177 24.23876953 38.78857422 C19.41298043 31.82094888 14.80675591 24.75666553 10.51171875 17.44921875 C8.35141175 13.94918649 5.94826214 10.63896079 3.515625 7.32421875 C2 5 2 5 0 0 Z M2 1 C6 2 6 2 6 2 Z " fill="#B3B3B3" transform="translate(78,5)"/>
<path d="M0 0 C22.77 0 45.54 0 69 0 C69 0.99 69 1.98 69 3 C67 4 67 4 56 4 C56 34.36 56 64.72 56 96 C64.5767765 95.4731181 64.5767765 95.4731181 73 94 C73.33 91.03 73.66 88.06 74 85 C71.18490007 82.7226499 71.18490007 82.7226499 68 83 C69.485 83.495 69.485 83.495 71 84 C71.75 86.6875 71.75 86.6875 72 90 C70.375 92.875 70.375 92.875 68 95 C65.4375 95.5 65.4375 95.5 63 95 C60.93509859 93.40168689 60.10291539 92.49510648 59.56640625 89.9140625 C59.55983084 86.06087201 59.77889703 83.47104546 61.4375 79.9375 C64.71440085 77.45984326 66.85129033 77.40509073 70.875 77.63671875 C73.63753941 78.10899111 75.13620367 78.90322913 77 81 C78.66553581 85.99660743 78.62770075 90.89271893 77.125 95.9375 C72.54395569 100.38380771 65.46551738 100.10579555 59.375 100.25 C54.63281478 100.16905231 50.53176567 99.3680802 46 98 C46 97.67 46 97.34 46 97 C48.31 97 50.62 97 53 97 C53 65.98 53 34.96 53 3 C37.05405824 3.36821056 37.05405824 3.36821056 21.10839844 3.74829102 C19.10873337 3.79225965 17.10905939 3.83582553 15.109375 3.87890625 C14.07184082 3.90561401 13.03430664 3.93232178 11.96533203 3.95983887 C10.97098145 3.98026245 9.97663086 4.00068604 8.95214844 4.02172852 C7.6597525 4.05170677 7.6597525 4.05170677 6.34124756 4.08229065 C4.07688875 4.0027025 2.16682577 3.63914593 0 3 C0 2.01 0 1.02 0 0 Z " fill="#727272" transform="translate(128,2)"/>
<path d="M0 0 C5.75 -0.125 5.75 -0.125 8 1 C8 0.67 8 0.34 8 0 C13.625 -0.25 13.625 -0.25 17 2 C17 1.34 17 0.68 17 0 C17.66 0 18.32 0 19 0 C19 0.66 19 1.32 19 2 C31.87 2 44.74 2 58 2 C57.67 2.66 57.34 3.32 57 4 C41.49 3.67 25.98 3.34 10 3 C10 3.66 10 4.32 10 5 C14.29 5 18.58 5 23 5 C23.33 21.83 23.66 38.66 24 56 C24.33 40.49 24.66 24.98 25 9 C28.45683357 12.45683357 30.77556661 14.85907711 33.296875 18.79296875 C33.86277344 19.67017578 34.42867187 20.54738281 35.01171875 21.45117188 C35.58535156 22.35416016 36.15898438 23.25714844 36.75 24.1875 C37.33910156 25.10208984 37.92820313 26.01667969 38.53515625 26.95898438 C44.13235311 35.67645764 44.13235311 35.67645764 44.0625 41.125 C44.05347656 42.03507812 44.04445312 42.94515625 44.03515625 43.8828125 C44.02355469 44.58148438 44.01195312 45.28015625 44 46 C36.84087905 39.51204663 31.72267714 31.34714297 27 23 C26.98541748 24.14476807 26.97083496 25.28953613 26.95581055 26.46899414 C26.89759239 30.73899697 26.82036172 35.00848538 26.73754883 39.27807617 C26.70440974 41.12174088 26.67634387 42.96550436 26.65356445 44.80932617 C26.61981488 47.46836208 26.56749034 50.12650187 26.51171875 52.78515625 C26.50213387 54.01057884 26.50213387 54.01057884 26.49235535 55.26075745 C26.35828512 60.54577118 25.47475415 64.30387822 23 69 C20.07517539 71.59055894 17.74062648 72.18525785 13.9375 72.3125 C8.28776978 71.86410871 8.28776978 71.86410871 6 70 C3.67544264 66.55324254 2.99045104 64.55383955 3.0625 60.375 C4.11913336 56.57111989 4.72411853 55.18392098 8 53 C11.7994102 51.86875877 14.81254305 51.4953308 18.5 53.0625 C20.62568877 55.80818133 20.42333268 57.61333858 20 61 C18 64 18 64 15.625 64.8125 C12.70744102 65.02089707 11.4404341 64.53656962 9 63 C9.495 64.485 9.495 64.485 10 66 C12.80045046 66.85650653 12.80045046 66.85650653 16 67 C18.88642473 64.81567858 19.85101198 63.44696406 21 60 C21.10110047 58.50252899 21.14829853 57.00106925 21.16113281 55.50024414 C21.17074036 54.59242691 21.1803479 53.68460968 21.19024658 52.74928284 C21.19449646 51.77112106 21.19874634 50.79295929 21.203125 49.78515625 C21.21167511 48.27422646 21.21167511 48.27422646 21.22039795 46.73277283 C21.22984494 44.60188853 21.23638074 42.47098964 21.24023438 40.34008789 C21.24995179 37.07868059 21.28098311 33.81790033 21.3125 30.55664062 C21.31902898 28.48698291 21.32427987 26.41732069 21.328125 24.34765625 C21.3404718 23.37151871 21.3528186 22.39538116 21.36553955 21.3896637 C21.36253845 20.47869431 21.35953735 19.56772491 21.35644531 18.62915039 C21.36009094 17.82989639 21.36373657 17.0306424 21.36749268 16.20716858 C20.91242387 13.47401595 19.68134593 12.15973889 18 10 C18 9.01 18 8.02 18 7 C17.25234375 6.95101563 16.5046875 6.90203125 15.734375 6.8515625 C14.74953125 6.77679687 13.7646875 6.70203125 12.75 6.625 C11.77546875 6.55539063 10.8009375 6.48578125 9.796875 6.4140625 C7.08399357 6.0124348 5.3937132 5.25984905 3 4 C0.80252869 4.29805007 0.80252869 4.29805007 -1 5 C-0.67 3.35 -0.34 1.7 0 0 Z " fill="#C7C8C8" transform="translate(51,0)"/>
<path d="M0 0 C2.81361416 2.67123942 5.03302737 5.3287325 7.12890625 8.58984375 C7.96905273 9.89018555 7.96905273 9.89018555 8.82617188 11.21679688 C9.39916016 12.11462891 9.97214844 13.01246094 10.5625 13.9375 C11.13935547 14.83146484 11.71621094 15.72542969 12.31054688 16.64648438 C13.88421028 19.09138012 15.45301806 21.53813351 17 24 C17.83519165 25.32173218 17.83519165 25.32173218 18.68725586 26.67016602 C20 29 20 29 20 31 C20.66 31 21.32 31 22 31 C23.5078125 33.1875 23.5078125 33.1875 25.125 36 C25.66382813 36.928125 26.20265625 37.85625 26.7578125 38.8125 C27.16773438 39.534375 27.57765625 40.25625 28 41 C28.556875 40.278125 29.11375 39.55625 29.6875 38.8125 C31.97909334 36.02542701 34.41459857 33.51358472 37 31 C35.44298069 35.67105792 32.91552627 39.08705685 30 43 C27.13275314 42.42655063 26.1385485 42.1385485 24 40 C22.68 40.66 21.36 41.32 20 42 C15.23113529 34.90517675 10.53336631 27.77560581 5.97094727 20.54638672 C4.44386834 18.14595706 3.01884369 16.01884369 1 14 C0.98541748 15.15000488 0.97083496 16.30000977 0.95581055 17.48486328 C0.89766238 21.76788805 0.82043076 26.05039616 0.73754883 30.33300781 C0.70437704 32.18350819 0.67632113 34.03410786 0.65356445 35.88476562 C0.6198755 38.55121003 0.5675534 41.2167509 0.51171875 43.8828125 C0.50213387 45.11597702 0.50213387 45.11597702 0.49235535 46.37405396 C0.3678252 51.28347504 -0.25551466 54.76407851 -3 59 C-6.52717623 61.35145082 -8.79636422 61.71009408 -13 62 C-16.27637364 61.23805264 -17.83354444 60.14455351 -20.375 57.9375 C-22.39391812 54.28791724 -22.35099472 52.07485617 -21.6640625 48.02734375 C-21 46 -21 46 -18.9375 43.9375 C-14.99992843 42.68082822 -12.13726254 42.6663498 -8 43 C-7.01 43.66 -6.02 44.32 -5 45 C-4.44537395 48.6446855 -4.53274784 50.34238585 -6.6875 53.375 C-9.38790237 55.27258004 -10.77060081 55.35882213 -14 55 C-14.66 53.68 -15.32 52.36 -16 51 C-16.66 51 -17.32 51 -18 51 C-17.34 52.98 -16.68 54.96 -16 57 C-11.545 56.505 -11.545 56.505 -7 56 C-6.01 53.69 -5.02 51.38 -4 49 C-3.34 49 -2.68 49 -2 49 C-1.97494385 47.90647217 -1.9498877 46.81294434 -1.92407227 45.6862793 C-1.82900546 41.5803912 -1.72903852 37.47463382 -1.62768555 33.36889648 C-1.58470805 31.60102422 -1.54301177 29.83312028 -1.50268555 28.06518555 C-1.07132673 9.22918405 -1.07132673 9.22918405 0 0 Z " fill="#C1C1C1" transform="translate(98,42)"/>
<path d="M0 0 C3.96 0 7.92 0 12 0 C12 0.33 12 0.66 12 1 C8.37 1 4.74 1 1 1 C1 31.36 1 61.72 1 93 C9.5767765 92.4731181 9.5767765 92.4731181 18 91 C18.33 88.03 18.66 85.06 19 82 C16.18490007 79.7226499 16.18490007 79.7226499 13 80 C13.99 80.33 14.98 80.66 16 81 C16.75 83.6875 16.75 83.6875 17 87 C15.375 89.875 15.375 89.875 13 92 C10.4375 92.5 10.4375 92.5 8 92 C5.93509859 90.40168689 5.10291539 89.49510648 4.56640625 86.9140625 C4.55983084 83.06087201 4.77889703 80.47104546 6.4375 76.9375 C9.71440085 74.45984326 11.85129033 74.40509073 15.875 74.63671875 C18.63753941 75.10899111 20.13620367 75.90322913 22 78 C23.66553581 82.99660743 23.62770075 87.89271893 22.125 92.9375 C17.40380182 97.51983941 10.11962422 97.10079603 3.875 97.125 C2.24977141 97.09348587 0.62458315 97.0555941 -1 97 C0.98 96.01 0.98 96.01 3 95 C2.01 94.67 1.02 94.34 0 94 C0 62.98 0 31.96 0 0 Z " fill="#CDCDCD" transform="translate(183,5)"/>
<path d="M0 0 C3.26016827 3.02108926 5.52812008 6.17062075 7.875 9.9375 C11.90706901 16.33382765 16.05434257 22.64731319 20.25 28.9375 C20.84022949 29.82493896 21.43045898 30.71237793 22.03857422 31.62670898 C25.27748224 36.4804924 28.57857185 41.2730269 32 46 C32.78375 45.195625 33.5675 44.39125 34.375 43.5625 C37 41 37 41 39 40 C38.61238092 46.06236235 36.80788725 49.3779357 33.125 54.125 C32.23012568 55.31386762 31.33686218 56.50394965 30.4453125 57.6953125 C30.02411133 58.25379883 29.60291016 58.81228516 29.16894531 59.38769531 C27.63132126 61.50851178 26.29616992 63.72526471 25 66 C23.875 64.375 23.875 64.375 23 62 C23.77290611 58.69758297 24.72405539 56.37685438 26.73046875 53.63671875 C28.33476329 51.06297309 28.33476329 51.06297309 27.2265625 48.421875 C26.69804687 47.54015625 26.16953125 46.6584375 25.625 45.75 C25.04621094 44.780625 24.46742188 43.81125 23.87109375 42.8125 C21.71745288 39.57529452 19.36596571 36.58388517 16.9140625 33.5703125 C14.10012677 29.7915988 11.79514369 25.7446268 9.42895508 21.67578125 C6.40785019 16.53347506 3.03902775 11.85394314 -0.6640625 7.171875 C-1.10492188 6.45515625 -1.54578125 5.7384375 -2 5 C-1.67 4.01 -1.34 3.02 -1 2 C-0.67 2 -0.34 2 0 2 C0 1.34 0 0.68 0 0 Z " fill="#B1B1B1" transform="translate(111,7)"/>
<path d="M0 0 C14.52 0 29.04 0 44 0 C44 31.02 44 62.04 44 94 C39.48934729 96.25532636 36.73558949 96.12482066 32 95 C27.97974794 93.35535143 25.93005105 91.09222148 23.8380127 87.29098511 C22.05492782 82.41633236 22.5204214 77.18859312 22.609375 72.06640625 C22.61503479 70.83333237 22.62069458 69.60025848 22.62652588 68.32981873 C22.64884451 64.40697761 22.69903577 60.48506321 22.75 56.5625 C22.77233199 53.89649774 22.78832031 51.23050418 22.8046875 48.56445312 C22.84869476 42.0426547 22.91556332 35.52139358 23 29 C22.34 29 21.68 29 21 29 C21.33 27.68 21.66 26.36 22 25 C22.99 25 23.98 25 25 25 C25.00142502 25.69855606 25.00285004 26.39711212 25.00431824 27.11683655 C25.02219927 33.72252001 25.06396245 40.32757954 25.13209057 46.93294621 C25.16628103 50.32835158 25.19145792 53.72331087 25.19555664 57.11889648 C25.20068102 61.02888748 25.24587126 64.93793688 25.29296875 68.84765625 C25.2890361 70.05833267 25.28510345 71.26900909 25.28105164 72.51637268 C25.4043028 79.67343906 25.97773357 83.75126167 31 89 C35.10188927 91.19744068 38.40817778 92.08163556 43 93 C43 62.64 43 32.28 43 1 C28.81 1 14.62 1 0 1 C0 0.67 0 0.34 0 0 Z " fill="#C9C9C9" transform="translate(137,5)"/>
<path d="M0 0 C0.33 0 0.66 0 1 0 C1.07433795 5.87155408 1.12869117 11.74283219 1.16479492 17.61474609 C1.17985098 19.61088841 1.20030027 21.60699781 1.22631836 23.60302734 C1.26284161 26.47762185 1.27975837 29.35177772 1.29296875 32.2265625 C1.30845261 33.11429352 1.32393646 34.00202454 1.33988953 34.91665649 C1.34126642 40.02346948 0.91416425 43.61063867 -2 48 C-5.52717623 50.35145082 -7.79636422 50.71009408 -12 51 C-15.27637364 50.23805264 -16.83354444 49.14455351 -19.375 46.9375 C-21.39391812 43.28791724 -21.35099472 41.07485617 -20.6640625 37.02734375 C-20 35 -20 35 -17.9375 32.9375 C-13.99992843 31.68082822 -11.13726254 31.6663498 -7 32 C-6.01 32.66 -5.02 33.32 -4 34 C-3.44537395 37.6446855 -3.53274784 39.34238585 -5.6875 42.375 C-8.38790237 44.27258004 -9.77060081 44.35882213 -13 44 C-13.66 42.68 -14.32 41.36 -15 40 C-15.66 40 -16.32 40 -17 40 C-16.34 41.98 -15.68 43.96 -15 46 C-10.545 45.505 -10.545 45.505 -6 45 C-5.01 42.69 -4.02 40.38 -3 38 C-2.34 38 -1.68 38 -1 38 C-0.67 25.46 -0.34 12.92 0 0 Z " fill="#A1A1A1" transform="translate(97,53)"/>
<path d="M0 0 C5 1 5 1 6.58203125 3.28515625 C6.98808594 4.20167969 7.39414063 5.11820313 7.8125 6.0625 C8.23144531 6.98160156 8.65039062 7.90070312 9.08203125 8.84765625 C9.38496094 9.55792969 9.68789062 10.26820312 10 11 C10.30292969 10.28972656 10.60585937 9.57945313 10.91796875 8.84765625 C11.33691406 7.92855469 11.75585938 7.00945313 12.1875 6.0625 C12.59355469 5.14597656 12.99960938 4.22945312 13.41796875 3.28515625 C15 1 15 1 20 0 C20 6.27 20 12.54 20 19 C18.68 19 17.36 19 16 19 C15.67 16.69 15.34 14.38 15 12 C14.01 14.31 13.02 16.62 12 19 C10.68 19 9.36 19 8 19 C7.01 17.02 6.02 15.04 5 13 C4.67 14.98 4.34 16.96 4 19 C2.68 19 1.36 19 0 19 C0 12.73 0 6.46 0 0 Z " fill="#CBCBCB" transform="translate(195,42)"/>
<path d="M0 0 C1.875 0.625 1.875 0.625 4 2 C5.87050208 6.44017914 6.26697647 10.31749409 6.31884766 15.10693359 C6.32889328 15.79055969 6.3389389 16.47418579 6.34928894 17.17852783 C6.37996409 19.41848985 6.39711185 21.65833322 6.4140625 23.8984375 C6.43278681 25.45928965 6.45236116 27.02013181 6.4727478 28.58096313 C6.52394174 32.67435807 6.56363532 36.76778577 6.60089111 40.86132812 C6.64101093 45.04435244 6.69206677 49.22724193 6.7421875 53.41015625 C6.83879582 61.60667852 6.92324853 69.80326785 7 78 C4.37822272 75.37822272 4.72948719 74.19786418 4.68115234 70.54052734 C4.66128265 69.39949554 4.64141296 68.25846375 4.62094116 67.08285522 C4.60938995 65.84637238 4.59783875 64.60988953 4.5859375 63.3359375 C4.56657135 62.07359283 4.5472052 60.81124817 4.5272522 59.51065063 C4.47750955 56.15365788 4.43627428 52.79677685 4.39910889 49.43963623 C4.35911153 46.01434336 4.30799981 42.58921854 4.2578125 39.1640625 C4.1615994 32.44281619 4.07659418 25.72149695 4 19 C3.34 19.33 2.68 19.66 2 20 C1.67 20.99 1.34 21.98 1 23 C1.66 23 2.32 23 3 23 C3 40.49 3 57.98 3 76 C2.67 76 2.34 76 2 76 C1.67 60.16 1.34 44.32 1 28 C-0.98 31.465 -0.98 31.465 -3 35 C-3.66 35 -4.32 35 -5 35 C-5.33 35.99 -5.66 36.98 -6 38 C-6.99 38 -7.98 38 -9 38 C-9.99 38.495 -9.99 38.495 -11 39 C-9.55781637 35.95871121 -7.86818626 33.10748601 -6.13085938 30.22705078 C-2.22080377 23.67752894 0.51873538 17.56062152 2 10 C2.33 10 2.66 10 3 10 C2.41825155 4.6913151 2.41825155 4.6913151 0 0 Z " fill="#C7C7C7" transform="translate(157,11)"/>
<path d="M0 0 C5.75 -0.125 5.75 -0.125 8 1 C8 0.67 8 0.34 8 0 C13.625 -0.25 13.625 -0.25 17 2 C17 1.34 17 0.68 17 0 C17.66 0 18.32 0 19 0 C19 0.66 19 1.32 19 2 C31.87 2 44.74 2 58 2 C57.67 2.66 57.34 3.32 57 4 C41.49 3.67 25.98 3.34 10 3 C10 3.66 10 4.32 10 5 C14.29 5 18.58 5 23 5 C23 23.15 23 41.3 23 60 C22.67 60 22.34 60 22 60 C21.99120064 59.14888641 21.99120064 59.14888641 21.98222351 58.28057861 C21.91829507 52.37552557 21.83387704 46.4710178 21.73754883 40.56640625 C21.70429212 38.36270333 21.67626254 36.15891509 21.65356445 33.95507812 C21.62003262 30.78739045 21.56771664 27.62048531 21.51171875 24.453125 C21.50532883 23.46757629 21.4989389 22.48202759 21.49235535 21.46661377 C21.46266411 20.08563507 21.46266411 20.08563507 21.43237305 18.67675781 C21.42126999 17.8684552 21.41016693 17.06015259 21.39872742 16.22735596 C20.91008673 13.49772993 19.68166291 12.16370836 18 10 C18 9.01 18 8.02 18 7 C17.25234375 6.95101563 16.5046875 6.90203125 15.734375 6.8515625 C14.74953125 6.77679687 13.7646875 6.70203125 12.75 6.625 C11.77546875 6.55539063 10.8009375 6.48578125 9.796875 6.4140625 C7.08399357 6.0124348 5.3937132 5.25984905 3 4 C0.80252869 4.29805007 0.80252869 4.29805007 -1 5 C-0.67 3.35 -0.34 1.7 0 0 Z " fill="#D3D3D3" transform="translate(51,0)"/>
<path d="M0 0 C3.22657876 3.00805628 5.57708546 6.16682172 7.96875 9.8671875 C8.51202942 10.7029985 8.51202942 10.7029985 9.06628418 11.55569458 C10.21549008 13.32584437 11.35789143 15.10026469 12.5 16.875 C13.266467 18.05889174 14.03339012 19.24248832 14.80078125 20.42578125 C16.21969436 22.6138902 17.63538423 24.80394645 19.04882812 26.99560547 C20.41777298 29.10349279 21.820699 31.18951442 23.24804688 33.25830078 C25 36 25 36 25 38 C25.99 38 26.98 38 28 38 C29.58182404 36.26352342 29.58182404 36.26352342 31 34.0625 C33.67881549 30.1070615 33.67881549 30.1070615 37 29 C36.47515308 33.55700425 34.68492697 36.192874 31.9375 39.8125 C31.20402344 40.78832031 30.47054687 41.76414063 29.71484375 42.76953125 C29.14894531 43.50558594 28.58304688 44.24164063 28 45 C25.15841139 42.27240061 23.0723696 39.35866798 21 36 C21 35.34 21 34.68 21 34 C20.34 34 19.68 34 19 34 C17.57730031 31.838355 16.27713106 29.68371733 15 27.4375 C10.31848681 19.40163156 5.22499225 11.69022868 0 4 C-0.33 7.3 -0.66 10.6 -1 14 C-1.33 14 -1.66 14 -2 14 C-2 9.71 -2 5.42 -2 1 C-1.34 0.67 -0.68 0.34 0 0 Z " fill="#575757" transform="translate(99,39)"/>
<path d="M0 0 C9.19925512 -0.48417132 9.19925512 -0.48417132 12.6875 1.625 C14 4 14 4 13.875 7 C13 10 13 10 11.8125 12.0625 C10.70782405 14.10987469 10.70782405 14.10987469 11.875 16.75 C12.24625 17.4925 12.6175 18.235 13 19 C9.32579134 18.69381595 8.21864487 18.24228216 5.6875 15.4375 C5.130625 14.633125 4.57375 13.82875 4 13 C3.67 14.98 3.34 16.96 3 19 C2.01 19 1.02 19 0 19 C0 12.73 0 6.46 0 0 Z M3 4 C3 5.65 3 7.3 3 9 C4.98 8.67 6.96 8.34 9 8 C9 6.68 9 5.36 9 4 C7.02 4 5.04 4 3 4 Z " fill="#AEAEAE" transform="translate(408,42)"/>
<path d="M0 0 C1.32 0 2.64 0 4 0 C5.17094005 2.7899439 6.33690927 5.58178597 7.5 8.375 C7.83386719 9.1690625 8.16773438 9.963125 8.51171875 10.78125 C8.82753906 11.54179688 9.14335937 12.30234375 9.46875 13.0859375 C9.76201172 13.7876709 10.05527344 14.4894043 10.35742188 15.21240234 C11 17 11 17 11 19 C9.35 19 7.7 19 6 19 C5.67 18.34 5.34 17.68 5 17 C3.02 17 1.04 17 -1 17 C-1.33 17.66 -1.66 18.32 -2 19 C-3.65 19 -5.3 19 -7 19 C-5.17778624 12.38757278 -2.94776396 6.19479329 0 0 Z M1 9 C1 9.99 1 10.98 1 12 C1.66 12 2.32 12 3 12 C3 11.01 3 10.02 3 9 C2.34 9 1.68 9 1 9 Z " fill="#797979" transform="translate(434,42)"/>
<path d="M0 0 C3 1.8125 3 1.8125 5 4 C5 4.99 5 5.98 5 7 C2.525 6.505 2.525 6.505 0 6 C0 5.34 0 4.68 0 4 C-2.31 4.33 -4.62 4.66 -7 5 C-8.19988045 10.28199593 -8.19988045 10.28199593 -6 15 C-3.5 15.5 -3.5 15.5 -1 15 C-0.34 14.01 0.32 13.02 1 12 C2.32 12 3.64 12 5 12 C4.6875 14.375 4.6875 14.375 4 17 C-0.0368865 19.69125767 -3.25964175 19.66531344 -8 19 C-11.50906933 17.09925411 -12.66615341 15.93894353 -14 12.1875 C-14 8.12621419 -12.91547193 5.55730501 -11 2 C-7.31028744 -0.45980837 -4.28401332 -0.69177647 0 0 Z " fill="#A1A1A1" transform="translate(464,42)"/>
<path d="M0 0 C2 2 2 2 2.25 4.9375 C2 8 2 8 0 11 C-2.95034182 12.00932746 -4.3979332 12.24408113 -7.3125 11.0625 C-7.869375 10.711875 -8.42625 10.36125 -9 10 C-9 11.32 -9 12.64 -9 14 C-4.545 14.99 -4.545 14.99 0 16 C-0.33 16.66 -0.66 17.32 -1 18 C-5.06597681 18.48404486 -6.79892813 18.1191537 -10.375 16 C-13.42261905 12.5170068 -13.42261905 12.5170068 -13.5625 9 C-13.27433438 5.37048538 -12.3394115 2.85928072 -10 0 C-6.25976024 -1.24674659 -3.83399823 -0.76679965 0 0 Z " fill="#BEBEBE" transform="translate(69,53)"/>
<path d="M0 0 C1.32 0 2.64 0 4 0 C4.33 1.65 4.66 3.3 5 5 C5.7425 4.175 6.485 3.35 7.25 2.5 C10 0 10 0 14 0 C13.49477778 4.37859255 10.82172778 6.81651224 8 10 C8.433125 10.48210938 8.86625 10.96421875 9.3125 11.4609375 C9.869375 12.09257813 10.42625 12.72421875 11 13.375 C11.8353125 14.31472656 11.8353125 14.31472656 12.6875 15.2734375 C14 17 14 17 14 19 C8.46153846 18.38461538 8.46153846 18.38461538 6.125 16.4375 C5.75375 15.963125 5.3825 15.48875 5 15 C4.67 16.32 4.34 17.64 4 19 C2.68 19 1.36 19 0 19 C0 12.73 0 6.46 0 0 Z " fill="#B3B3B3" transform="translate(477,42)"/>
<path d="M0 0 C9 0 9 0 11.5625 1.0625 C13.7214109 3.97233643 13.26484554 6.4907966 13 10 C12.01 10.33 11.02 10.66 10 11 C10.495 11.94875 10.99 12.8975 11.5 13.875 C13 17 13 17 13 19 C9.32579134 18.69381595 8.21864487 18.24228216 5.6875 15.4375 C5.130625 14.633125 4.57375 13.82875 4 13 C3.67 14.98 3.34 16.96 3 19 C2.01 19 1.02 19 0 19 C0 12.73 0 6.46 0 0 Z M3 4 C3 5.65 3 7.3 3 9 C4.65 8.67 6.3 8.34 8 8 C8.33 6.68 8.66 5.36 9 4 C7.02 4 5.04 4 3 4 Z " fill="#494949" transform="translate(518,42)"/>
<path d="M0 0 C1.9375 1.3125 1.9375 1.3125 3 3 C3 3.99 3 4.98 3 6 C-0.02419525 5.41196203 -3.01758453 4.77321882 -6 4 C-3.45543849 6.96865509 -0.51005335 8.3619751 3 10 C3.125 13.375 3.125 13.375 3 17 C0.39295102 19.60704898 -1.47338241 19.23905333 -5.02734375 19.265625 C-7 19 -7 19 -10 17 C-10 15.68 -10 14.36 -10 13 C-6 13 -6 13 -4.375 14.5 C-3.92125 14.995 -3.4675 15.49 -3 16 C-2.34 16 -1.68 16 -1 16 C-1.71004465 12.72143001 -1.71004465 12.72143001 -4.9375 11.4375 C-5.948125 10.963125 -6.95875 10.48875 -8 10 C-10 8 -10 8 -10.3125 5 C-10.209375 4.01 -10.10625 3.02 -10 2 C-6.30513897 -0.46324069 -4.36706908 -0.38991688 0 0 Z " fill="#BCBCBC" transform="translate(346,42)"/>
<path d="M0 0 C4.55015893 1.51671964 6.50057264 5.16891053 9 9 C9.78375 8.195625 10.5675 7.39125 11.375 6.5625 C14 4 14 4 16 3 C15.61238092 9.06236235 13.80788725 12.3779357 10.125 17.125 C9.23012568 18.31386762 8.33686218 19.50394965 7.4453125 20.6953125 C6.81351074 21.53304199 6.81351074 21.53304199 6.16894531 22.38769531 C4.63132126 24.50851178 3.29616992 26.72526471 2 29 C0.875 27.375 0.875 27.375 0 25 C0.96788951 20.86447208 2.70261951 17.55049712 5 14 C4.6390625 13.40832031 4.278125 12.81664062 3.90625 12.20703125 C3.4421875 11.41683594 2.978125 10.62664063 2.5 9.8125 C2.0359375 9.03519531 1.571875 8.25789063 1.09375 7.45703125 C-0.10729647 4.75896614 -0.20741043 2.9193018 0 0 Z " fill="#909090" transform="translate(134,44)"/>
<path d="M0 0 C2.375 0.3125 2.375 0.3125 5 1 C5.66 1.99 6.32 2.98 7 4 C7.66 4 8.32 4 9 4 C9.7115625 3.01 9.7115625 3.01 10.4375 2 C10.953125 1.34 11.46875 0.68 12 0 C12.99 0 13.98 0 15 0 C14.38631348 2.55702715 13.6685085 4.89502704 12.75 7.375 C11.84002004 11.77323648 12.72903079 13.24416631 15 17 C15 17.66 15 18.32 15 19 C11.73045798 18.43628586 10.17424117 17.50037734 8 15 C7.608125 15.66 7.21625 16.32 6.8125 17 C5 19 5 19 2.3125 19.25 C1.549375 19.1675 0.78625 19.085 0 19 C1.12451727 16.0280615 2.22293791 13.66559313 4 11 C3.74365373 8.35108852 3.0522556 7.06897739 1.4375 4.9375 C0 3 0 3 0 0 Z " fill="#848484" transform="translate(274,42)"/>
<path d="M0 0 C3.96 0 7.92 0 12 0 C11.67 1.32 11.34 2.64 11 4 C9.02 4 7.04 4 5 4 C5 5.32 5 6.64 5 8 C6.98 8 8.96 8 11 8 C11 8.99 11 9.98 11 11 C9.35 11.33 7.7 11.66 6 12 C5.67 13.32 5.34 14.64 5 16 C6.98 16 8.96 16 11 16 C11.33 16.99 11.66 17.98 12 19 C8.04 19 4.08 19 0 19 C0 12.73 0 6.46 0 0 Z " fill="#DADADA" transform="translate(498,42)"/>
<path d="M0 0 C1.51400391 0.01740234 1.51400391 0.01740234 3.05859375 0.03515625 C4.07050781 0.04417969 5.08242188 0.05320313 6.125 0.0625 C7.29869141 0.07990234 7.29869141 0.07990234 8.49609375 0.09765625 C8.82609375 0.75765625 9.15609375 1.41765625 9.49609375 2.09765625 C9.16609375 2.75765625 8.83609375 3.41765625 8.49609375 4.09765625 C6.18609375 4.09765625 3.87609375 4.09765625 1.49609375 4.09765625 C1.49609375 5.41765625 1.49609375 6.73765625 1.49609375 8.09765625 C3.80609375 8.09765625 6.11609375 8.09765625 8.49609375 8.09765625 C8.49609375 9.08765625 8.49609375 10.07765625 8.49609375 11.09765625 C6.18609375 11.42765625 3.87609375 11.75765625 1.49609375 12.09765625 C1.82609375 13.41765625 2.15609375 14.73765625 2.49609375 16.09765625 C4.80609375 16.42765625 7.11609375 16.75765625 9.49609375 17.09765625 C9.16609375 17.75765625 8.83609375 18.41765625 8.49609375 19.09765625 C4.86609375 19.09765625 1.23609375 19.09765625 -2.50390625 19.09765625 C-3.33715218 14.93142658 -3.63841329 11.54976847 -3.62890625 7.34765625 C-3.63148438 6.1978125 -3.6340625 5.04796875 -3.63671875 3.86328125 C-3.45767001 0.13485452 -3.45767001 0.13485452 0 0 Z " fill="#E3E3E3" transform="translate(359.50390625,41.90234375)"/>
<path d="M0 0 C3.81706966 3.5989514 7.42998892 7.38491627 10 12 C10 12.99 10 13.98 10 15 C9.34 15 8.68 15 8 15 C8.00222061 15.62560822 8.00444122 16.25121643 8.00672913 16.89578247 C8.02888203 23.41716947 8.04394839 29.93854576 8.05493164 36.45996094 C8.05995504 38.89258254 8.06677491 41.32520114 8.07543945 43.7578125 C8.08759226 47.25782007 8.09324832 50.75778765 8.09765625 54.2578125 C8.10281754 55.34240753 8.10797882 56.42700256 8.11329651 57.54446411 C8.1136614 62.47502938 8.0557706 67.15587607 7 72 C6.67 72 6.34 72 6 72 C5.99857498 71.25355225 5.99714996 70.50710449 5.99568176 69.73803711 C5.97779423 62.67645693 5.93601176 55.61550649 5.86790943 48.55426025 C5.83373189 44.92459986 5.80854405 41.29535621 5.80444336 37.66552734 C5.80014023 34.15731427 5.77151437 30.65003977 5.72656822 27.14212036 C5.70740673 25.16376711 5.71293101 23.18522401 5.71894836 21.20678711 C5.61178864 14.54766592 5.27297971 9.87622807 1.06889343 4.54638672 C0 3 0 3 0 0 Z " fill="#4E4E4E" transform="translate(89,25)"/>
<path d="M0 0 C11.96645792 14.74627668 11.96645792 14.74627668 11.24609375 24.19921875 C11.16488281 24.79347656 11.08367187 25.38773438 11 26 C5.31322299 20.84635833 -1.72106449 13.74409762 -3.1875 6 C-3 3 -3 3 -1.5625 1.0625 C-1.046875 0.711875 -0.53125 0.36125 0 0 Z " fill="#AFAFAF" transform="translate(84,20)"/>
<path d="M0 0 C3.63 0 7.26 0 11 0 C11.33 0.66 11.66 1.32 12 2 C11.67 2.66 11.34 3.32 11 4 C8.69 4 6.38 4 4 4 C4 5.32 4 6.64 4 8 C6.31 8 8.62 8 11 8 C11 8.99 11 9.98 11 11 C9.02 11.33 7.04 11.66 5 12 C4.67 13.32 4.34 14.64 4 16 C6.31 16.33 8.62 16.66 11 17 C11 17.66 11 18.32 11 19 C7.37 19 3.74 19 0 19 C0 12.73 0 6.46 0 0 Z " fill="#9C9C9C" transform="translate(317,42)"/>
<path d="M0 0 C9 0 9 0 11.5625 1.0625 C13.76482517 4.03085131 13.39036882 6.42161914 13 10 C11 12 11 12 9.0546875 12.1953125 C7.03645833 12.13020833 5.01822917 12.06510417 3 12 C3 14.31 3 16.62 3 19 C2.01 19 1.02 19 0 19 C0 12.73 0 6.46 0 0 Z M3 4 C3 5.65 3 7.3 3 9 C4.65 8.67 6.3 8.34 8 8 C8.33 6.68 8.66 5.36 9 4 C7.02 4 5.04 4 3 4 Z " fill="#A5A5A5" transform="translate(297,42)"/>
<path d="M0 0 C3.63 0 7.26 0 11 0 C11 1.32 11 2.64 11 4 C8.36 4 5.72 4 3 4 C3 5.32 3 6.64 3 8 C5.31 8 7.62 8 10 8 C10 8.99 10 9.98 10 11 C7.69 11 5.38 11 3 11 C3 12.65 3 14.3 3 16 C4.423125 15.9690625 4.423125 15.9690625 5.875 15.9375 C9 16 9 16 11 17 C11 17.66 11 18.32 11 19 C7.37 19 3.74 19 0 19 C0 12.73 0 6.46 0 0 Z " fill="#949494" transform="translate(257,42)"/>
<path d="M0 0 C2.3125 -0.3125 2.3125 -0.3125 5 0 C6.8125 2.5 6.8125 2.5 8 5 C8.5775 4.175 9.155 3.35 9.75 2.5 C10.4925 1.675 11.235 0.85 12 0 C13.32 0 14.64 0 16 0 C15.504645 2.57584603 14.79295901 4.37094845 13.5 6.6875 C11.63942306 10.79627409 11.28744458 14.53965304 11 19 C9.68 19 8.36 19 7 19 C6.6596875 17.329375 6.6596875 17.329375 6.3125 15.625 C5.19493564 11.06501112 3.20817691 7.13975687 1.0234375 3.00390625 C0 1 0 1 0 0 Z " fill="#B8B8B8" transform="translate(221,42)"/>
<path d="M0 0 C1.32 0 2.64 0 4 0 C4.83739781 2.1234016 5.66980283 4.2487728 6.5 6.375 C6.9640625 7.55835938 7.428125 8.74171875 7.90625 9.9609375 C9 13 9 13 9 15 C9.66 15 10.32 15 11 15 C11.33 13.68 11.66 12.36 12 11 C13.09658936 14.28976808 12.79953138 15.71303767 12 19 C10.68 19 9.36 19 8 19 C7.01 17.02 6.02 15.04 5 13 C4.67 14.98 4.34 16.96 4 19 C2.68 19 1.36 19 0 19 C0 12.73 0 6.46 0 0 Z " fill="#B1B1B1" transform="translate(195,42)"/>
<path d="M0 0 C3.5 0.1875 3.5 0.1875 5.5 1.1875 C5.17 1.8475 4.84 2.5075 4.5 3.1875 C3.84 3.1875 3.18 3.1875 2.5 3.1875 C2.7475 4.074375 2.995 4.96125 3.25 5.875 C3.5 9.1875 3.5 9.1875 1.875 12.0625 C-0.5 14.1875 -0.5 14.1875 -3.0625 14.6875 C-5.94192417 14.09684889 -6.72363004 13.48963464 -8.5 11.1875 C-8.79296875 8.92578125 -8.79296875 8.92578125 -8.6875 6.5 C-8.66042969 5.69175781 -8.63335937 4.88351563 -8.60546875 4.05078125 C-8.57066406 3.43589844 -8.53585938 2.82101563 -8.5 2.1875 C-8.17 2.1875 -7.84 2.1875 -7.5 2.1875 C-7.5 3.8375 -7.5 5.4875 -7.5 7.1875 C-6.84 7.1875 -6.18 7.1875 -5.5 7.1875 C-5.561875 6.011875 -5.561875 6.011875 -5.625 4.8125 C-5.42184296 0.54620207 -4.12325143 0.22088847 0 0 Z " fill="#C6C6C6" transform="translate(196.5,82.8125)"/>
<path d="M0 0 C1.258125 -0.04125 2.51625 -0.0825 3.8125 -0.125 C4.52019531 -0.14820312 5.22789063 -0.17140625 5.95703125 -0.1953125 C8 0 8 0 11 2 C11.55462605 5.6446855 11.46725216 7.34238585 9.3125 10.375 C6.61209763 12.27258004 5.22939919 12.35882213 2 12 C1.34 10.68 0.68 9.36 0 8 C-0.66 8 -1.32 8 -2 8 C-1.34 9.98 -0.68 11.96 0 14 C-2.22984785 12.23470379 -2.93915901 11.34766278 -3.4375 8.5 C-3 6 -3 6 -1.25 4.1875 C1 3 1 3 5 3 C5 2.34 5 1.68 5 1 C3.35 1 1.7 1 0 1 C0 0.67 0 0.34 0 0 Z " fill="#C4C4C5" transform="translate(82,85)"/>
<path d="M0 0 C1.93166016 0.01740234 1.93166016 0.01740234 3.90234375 0.03515625 C5.19269531 0.04417969 6.48304688 0.05320313 7.8125 0.0625 C8.81152344 0.07410156 9.81054688 0.08570313 10.83984375 0.09765625 C10.83984375 1.41765625 10.83984375 2.73765625 10.83984375 4.09765625 C9.18984375 4.09765625 7.53984375 4.09765625 5.83984375 4.09765625 C5.83984375 9.04765625 5.83984375 13.99765625 5.83984375 19.09765625 C4.51984375 19.09765625 3.19984375 19.09765625 1.83984375 19.09765625 C1.83984375 14.14765625 1.83984375 9.19765625 1.83984375 4.09765625 C0.18984375 4.09765625 -1.46015625 4.09765625 -3.16015625 4.09765625 C-3.49015625 3.10765625 -3.82015625 2.11765625 -4.16015625 1.09765625 C-3.16015625 0.09765625 -3.16015625 0.09765625 0 0 Z " fill="#D7D7D7" transform="translate(390.16015625,41.90234375)"/>
<path d="M0 0 C0.33 0 0.66 0 1 0 C1 29.7 1 59.4 1 90 C2.65 90 4.3 90 6 90 C5.505 90.99 5.505 90.99 5 92 C3.5629191 92.05422947 2.12524538 92.09289723 0.6875 92.125 C-0.51326172 92.15980469 -0.51326172 92.15980469 -1.73828125 92.1953125 C-4 92 -4 92 -7 90 C-4.69 90 -2.38 90 0 90 C0 60.3 0 30.6 0 0 Z " fill="#474747" transform="translate(181,9)"/>
<path d="M0 0 C2.8125 0.875 2.8125 0.875 4.8125 2.875 C5.13589354 5.91489923 5.26920212 8.01868353 3.8125 10.75 C0.55936316 12.57988947 -2.50140109 12.05628355 -6.1875 11.875 C-6.1875 11.545 -6.1875 11.215 -6.1875 10.875 C-4.5375 10.875 -2.8875 10.875 -1.1875 10.875 C-1.1875 9.885 -1.1875 8.895 -1.1875 7.875 C-3.1675 7.875 -5.1475 7.875 -7.1875 7.875 C-7.5175 6.555 -7.8475 5.235 -8.1875 3.875 C-4.03216019 -0.15812393 -4.03216019 -0.15812393 0 0 Z " fill="#C4C4C4" transform="translate(152.1875,16.125)"/>
<path d="M0 0 C9.57 0 19.14 0 29 0 C29 0.33 29 0.66 29 1 C26.69 1.33 24.38 1.66 22 2 C25.3 6.95 28.6 11.9 32 17 C31.67 17.66 31.34 18.32 31 19 C28.50387065 17.75193533 28.2762644 16.81007774 27.125 14.3125 C26.45272505 12.8577874 25.73880516 11.42207922 25 10 C24.50757812 8.93910156 24.01515625 7.87820312 23.5078125 6.78515625 C20.70632492 3.67384684 20.19154014 3.55372139 16.234375 3.1953125 C14.4068673 3.14234126 12.57826806 3.1198788 10.75 3.125 C9.81414062 3.104375 8.87828125 3.08375 7.9140625 3.0625 C5.60848561 3.01544741 3.30595838 2.99555325 1 3 C0.67 2.01 0.34 1.02 0 0 Z M2 1 C6 2 6 2 6 2 Z " fill="#F4F4F2" transform="translate(78,5)"/>
<path d="M0 0 C6.8359375 -0.1953125 6.8359375 -0.1953125 9 0 C11 2 11 2 11.4375 4.9375 C11 8 11 8 8.8125 9.9375 C5.65554385 11.13012788 4.17393763 10.99752325 1 10 C1 12.31 1 14.62 1 17 C0.67 17 0.34 17 0 17 C0 11.39 0 5.78 0 0 Z M2 3 C2 4.65 2 6.3 2 8 C3.98 7.67 5.96 7.34 8 7 C8 5.68 8 4.36 8 3 C6.02 3 4.04 3 2 3 Z " fill="#757575" transform="translate(409,43)"/>
<path d="M0 0 C2.63821702 2.51983548 4.81774725 4.96731735 6.75 8.0625 C7.17796875 8.73410156 7.6059375 9.40570313 8.046875 10.09765625 C9 12 9 12 9 15 C8.34 15 7.68 15 7 15 C6.67 15.66 6.34 16.32 6 17 C1.125 14.25 1.125 14.25 0 12 C-0.07065617 9.95944995 -0.08421976 7.91665743 -0.0625 5.875 C-0.05347656 4.77929688 -0.04445313 3.68359375 -0.03515625 2.5546875 C-0.02355469 1.71164063 -0.01195313 0.86859375 0 0 Z " fill="#BABABA" transform="translate(98,42)"/>
<path d="M0 0 C4.35992871 -0.04945386 8.71970862 -0.08574488 13.07983398 -0.10986328 C14.56293583 -0.11991821 16.04601788 -0.13356404 17.52905273 -0.15087891 C19.66134531 -0.17515006 21.79337569 -0.18648799 23.92578125 -0.1953125 C25.85031128 -0.21102295 25.85031128 -0.21102295 27.8137207 -0.22705078 C31 0 31 0 34 2 C34.6875 4.625 34.6875 4.625 35 7 C34.34 7.33 33.68 7.66 33 8 C33 7.34 33 6.68 33 6 C32.34 6 31.68 6 31 6 C30.67 4.68 30.34 3.36 30 2 C20.1 2.33 10.2 2.66 0 3 C0 2.01 0 1.02 0 0 Z " fill="#5D5D5D" transform="translate(77,3)"/>
<path d="M0 0 C0.67095703 0.61488281 0.67095703 0.61488281 1.35546875 1.2421875 C6.70961762 6.01411549 10.82536369 7.99888796 18 9 C16.5 10.5625 16.5 10.5625 14 12 C8.8613495 11.83686824 5.1089384 11.28715072 1 8 C-0.875 5.4375 -0.875 5.4375 -2 3 C-1 1 -1 1 0 0 Z " fill="#949494" transform="translate(163,89)"/>
<path d="M0 0 C3.3 0 6.6 0 10 0 C10 0.33 10 0.66 10 1 C7.36 1 4.72 1 2 1 C2 3.31 2 5.62 2 8 C4.31 8 6.62 8 9 8 C9 8.33 9 8.66 9 9 C6.69 9 4.38 9 2 9 C2 11.31 2 13.62 2 16 C4.97 16 7.94 16 11 16 C11 16.66 11 17.32 11 18 C7.37 18 3.74 18 0 18 C0 12.06 0 6.12 0 0 Z " fill="#5E5E5E" transform="translate(499,43)"/>
<path d="M0 0 C0.99 0.66 1.98 1.32 3 2 C2.625 4.375 2.625 4.375 1 7 C-5.60004933 9.60081152 -13.02822204 9.23857795 -20 9 C-19.360625 8.690625 -18.72125 8.38125 -18.0625 8.0625 C-16.06389179 7.1654837 -16.06389179 7.1654837 -15 6 C-13.58776052 5.81617544 -12.16948956 5.67765727 -10.75 5.5625 C-7.19712239 5.19476585 -4.16248377 4.77889712 -1 3 C-0.67 2.01 -0.34 1.02 0 0 Z " fill="#858585" transform="translate(202,93)"/>
<path d="M0 0 C2.01822917 0.06510417 4.03645833 0.13020833 6.0546875 0.1953125 C6.0546875 0.8553125 6.0546875 1.5153125 6.0546875 2.1953125 C2.5896875 3.6803125 2.5896875 3.6803125 -0.9453125 5.1953125 C-0.47730539 9.25137415 -0.06578042 12.66119929 2.0546875 16.1953125 C-0.45209785 15.849549 -1.79422979 15.32034646 -3.7578125 13.6953125 C-5.56237335 9.89623702 -4.97725032 6.21443876 -3.9453125 2.1953125 C-1.9453125 0.1953125 -1.9453125 0.1953125 0 0 Z " fill="#868586" transform="translate(80.9453125,85.8046875)"/>
<path d="M0 0 C1.66842534 0.32441604 3.33480481 0.65939189 5 1 C5.7425 1.144375 6.485 1.28875 7.25 1.4375 C8.11625 1.7159375 8.11625 1.7159375 9 2 C10.26237731 4.52475462 10.09856404 6.31200466 10.0625 9.125 C10.05347656 10.03507812 10.04445313 10.94515625 10.03515625 11.8828125 C10.02355469 12.58148438 10.01195313 13.28015625 10 14 C6.07511907 10.29939798 2.97784457 6.5093075 0 2 C0 1.34 0 0.68 0 0 Z " fill="#B8B8B8" transform="translate(85,32)"/>
<path d="M0 0 C5.57142857 5.14285714 5.57142857 5.14285714 6 9 C6.66 8.67 7.32 8.34 8 8 C6.6744419 11.62276315 5.05653045 14.63505348 2.875 17.8125 C2.33617187 18.60269531 1.79734375 19.39289063 1.2421875 20.20703125 C0.83226562 20.79871094 0.42234375 21.39039062 0 22 C-2.0859375 18.3671875 -2.0859375 18.3671875 -1.3125 15.0625 C-0.08037324 12.18753755 1.30270632 9.62309023 3 7 C2.505 6.21625 2.01 5.4325 1.5 4.625 C0 2 0 2 0 0 Z " fill="#B9B9B9" transform="translate(136,51)"/>
<path d="M0 0 C1.98 0 3.96 0 6 0 C4.68 0.33 3.36 0.66 2 1 C2 3.31 2 5.62 2 8 C4.31 8 6.62 8 9 8 C9 8.33 9 8.66 9 9 C6.69 9 4.38 9 2 9 C2 11.31 2 13.62 2 16 C4.97 16 7.94 16 11 16 C10.67 16.66 10.34 17.32 10 18 C6.7 18 3.4 18 0 18 C0 12.06 0 6.12 0 0 Z " fill="#5B5B5B" transform="translate(358,43)"/>
<path d="M0 0 C7.90069513 -0.45580933 7.90069513 -0.45580933 11.5625 1.0625 C13.7214109 3.97233643 13.26484554 6.4907966 13 10 C12.01 10 11.02 10 10 10 C10 9.34 10 8.68 10 8 C9.34 8.66 8.68 9.32 8 10 C4.875 10.125 4.875 10.125 2 10 C1.95758277 7.66705225 1.95907063 5.33297433 2 3 C2.33 2.67 2.66 2.34 3 2 C2.01 1.34 1.02 0.68 0 0 Z M3 4 C3 5.65 3 7.3 3 9 C4.65 8.67 6.3 8.34 8 8 C8.33 6.68 8.66 5.36 9 4 C7.02 4 5.04 4 3 4 Z " fill="#BBBBBB" transform="translate(518,42)"/>
<path d="M0 0 C4 5 4 5 8 10 C11.465 5.05 11.465 5.05 15 0 C15 3.63195496 14.04546845 4.74713911 12 7.6875 C11.443125 8.49574219 10.88625 9.30398437 10.3125 10.13671875 C9.879375 10.75160156 9.44625 11.36648437 9 12 C7.68 11.67 6.36 11.34 5 11 C4.67 9.68 4.34 8.36 4 7 C2.35 7.66 0.7 8.32 -1 9 C-3 4.25 -3 4.25 -3 2 C-2.01 2 -1.02 2 0 2 C0 1.34 0 0.68 0 0 Z " fill="#C8C8C8" transform="translate(119,73)"/>
<path d="M0 0 C2.97 0 5.94 0 9 0 C9 0.33 9 0.66 9 1 C7.02 1 5.04 1 3 1 C2.67 3.97 2.34 6.94 2 10 C4.31 10 6.62 10 9 10 C9 10.33 9 10.66 9 11 C7.02 11 5.04 11 3 11 C3 13.64 3 16.28 3 19 C2.01 19 1.02 19 0 19 C0 12.73 0 6.46 0 0 Z " fill="#7B7B7B" transform="translate(297,42)"/>
<path d="M0 0 C1.32 0 2.64 0 4 0 C4 6.27 4 12.54 4 19 C3.01 19 2.02 19 1 19 C0.67 12.73 0.34 6.46 0 0 Z " fill="#959595" transform="translate(211,42)"/>
<path d="M0 0 C8.3943875 -1.02688624 8.3943875 -1.02688624 11.77734375 1.13671875 C16.14991047 6.37112471 15.47804695 12.5304313 15 19 C14.67 19 14.34 19 14 19 C13.90203125 18.25234375 13.8040625 17.5046875 13.703125 16.734375 C12.84164951 10.77763081 12.84164951 10.77763081 10.375 5.375 C6.93039715 3.38075625 3.96101465 3.26406764 0 3 C0 2.01 0 1.02 0 0 Z " fill="#8C8C8C" transform="translate(146,9)"/>
<path d="M0 0 C0.33 0.99 0.66 1.98 1 3 C-0.40333195 5.35255857 -1.82161123 7.49093839 -3.4375 9.6875 C-3.87126953 10.29400391 -4.30503906 10.90050781 -4.75195312 11.52539062 C-5.82544245 13.02355704 -6.91155165 14.5126661 -8 16 C-9.5 14.75 -9.5 14.75 -11 13 C-11 11.68 -11 10.36 -11 9 C-10.01 9 -9.02 9 -8 9 C-6.38229771 7.26642123 -6.38229771 7.26642123 -4.9375 5.0625 C-2.18623482 1.09311741 -2.18623482 1.09311741 0 0 Z " fill="#7D7D7D" transform="translate(135,68)"/>
<path d="M0 0 C0.33 0 0.66 0 1 0 C1 17.82 1 35.64 1 54 C0.67 54 0.34 54 0 54 C0 37.83 0 21.66 0 5 C-0.66 5 -1.32 5 -2 5 C-1.125 1.125 -1.125 1.125 0 0 Z " fill="#414141" transform="translate(160,29)"/>
<path d="M0 0 C3.25524265 3.02272532 5.61820737 6.25718301 8 10 C7.67 10.66 7.34 11.32 7 12 C7 12.66 7 13.32 7 14 C6.67 14.66 6.34 15.32 6 16 C4.63343543 14.23871656 3.28205915 12.46563912 1.9375 10.6875 C1.18339844 9.70136719 0.42929688 8.71523437 -0.34765625 7.69921875 C-0.89292969 6.80847656 -1.43820313 5.91773438 -2 5 C-1.67 4.01 -1.34 3.02 -1 2 C-0.67 2 -0.34 2 0 2 C0 1.34 0 0.68 0 0 Z " fill="#B5B5B5" transform="translate(111,7)"/>
<path d="M0 0 C-0.99 0.66 -1.98 1.32 -3 2 C-4.33790641 2.99387334 -5.67218122 3.9926892 -7 5 C-6.55558072 9.1043707 -6.55558072 9.1043707 -4.875 12.8125 C-2.06937763 14.58939417 0.74104317 14.69255124 4 15 C3.67 15.66 3.34 16.32 3 17 C-1.06597681 17.48404486 -2.79892813 17.1191537 -6.375 15 C-9.42196673 11.51775231 -9.42196673 11.51775231 -9.5625 7.9375 C-8.5896975 1.12788247 -6.93193627 -0.61617211 0 0 Z " fill="#575657" transform="translate(65,54)"/>
<path d="M0 0 C3.96 0 7.92 0 12 0 C12 0.66 12 1.32 12 2 C10.35 2 8.7 2 7 2 C7 6.95 7 11.9 7 17 C6.34 17 5.68 17 5 17 C4.96132813 15.41058594 4.96132813 15.41058594 4.921875 13.7890625 C4.8656022 12.40099999 4.80825467 11.01298075 4.75 9.625 C4.73582031 8.92632812 4.72164063 8.22765625 4.70703125 7.5078125 C4.63964218 5.22282354 4.63964218 5.22282354 4 2 C2.68 1.34 1.36 0.68 0 0 Z " fill="#565656" transform="translate(388,43)"/>
<path d="M0 0 C0.33 1.65 0.66 3.3 1 5 C0.01 4.34 -0.98 3.68 -2 3 C-4.62531524 2.83286431 -4.62531524 2.83286431 -7 3 C-6.60196439 5.88575819 -6.20990931 6.82189513 -3.9375 8.75 C-3.298125 9.1625 -2.65875 9.575 -2 10 C-4.76276177 9.47731534 -7.3260876 8.89130413 -10 8 C-10.1875 5.125 -10.1875 5.125 -10 2 C-6.3558226 -0.4294516 -4.28758728 -0.16179575 0 0 Z " fill="#797979" transform="translate(346,42)"/>
<path d="M0 0 C0.99 0.33 1.98 0.66 3 1 C3.6875 3.75 3.6875 3.75 4 7 C3.484375 7.639375 2.96875 8.27875 2.4375 8.9375 C1.963125 9.618125 1.48875 10.29875 1 11 C1.71514394 14.71295284 1.71514394 14.71295284 3 18 C1.68 18 0.36 18 -1 18 C-1.99 15.69 -2.98 13.38 -4 11 C-3.175 10.62875 -2.35 10.2575 -1.5 9.875 C-0.675 9.25625 0.15 8.6375 1 8 C1.38692581 4.84010585 1.43060128 2.86120256 0 0 Z " fill="#B9B9B9" transform="translate(418,43)"/>
<path d="M0 0 C1 3 1 3 0.375 4.8125 C-0.19288921 8.12518708 1.43761522 10.12521201 3 13 C3 13.66 3 14.32 3 15 C-0.26954202 14.43628586 -1.82575883 13.50037734 -4 11 C-4.99 11.66 -5.98 12.32 -7 13 C-6.34 11.35 -5.68 9.7 -5 8 C-4.01 8 -3.02 8 -2 8 C-1.7834375 6.576875 -1.7834375 6.576875 -1.5625 5.125 C-1 2 -1 2 0 0 Z " fill="#B7B7B7" transform="translate(286,46)"/>
<path d="M0 0 C1.46726798 3.81489674 0.43336419 6.29011622 -1 10 C0.98 10 2.96 10 5 10 C5.33 10.66 5.66 11.32 6 12 C3.03 12 0.06 12 -3 12 C-3.33 12.66 -3.66 13.32 -4 14 C-4.3704698 6.46711409 -4.3704698 6.46711409 -2.5625 4.1875 C-2.046875 3.795625 -1.53125 3.40375 -1 3 C-0.67 2.01 -0.34 1.02 0 0 Z " fill="#707070" transform="translate(434,45)"/>
<path d="M0 0 C3.29936132 0.5688554 4.76024316 1.54693298 7 4 C7.33 4 7.66 4 8 4 C7.67 8.29 7.34 12.58 7 17 C6.67 17 6.34 17 6 17 C5.62875 15.2365625 5.62875 15.2365625 5.25 13.4375 C4.18417247 9.08923261 2.29359685 5.82266141 0 2 C0 1.34 0 0.68 0 0 Z " fill="#9E9E9E" transform="translate(223,43)"/>
<path d="M0 0 C2.86724686 0.57344937 3.8614515 0.8614515 6 3 C6 2.01 6 1.02 6 0 C6.66 0 7.32 0 8 0 C11 5.75 11 5.75 11 8 C7.32579134 7.69381595 6.21864487 7.24228216 3.6875 4.4375 C3.130625 3.633125 2.57375 2.82875 2 2 C1.67 3.98 1.34 5.96 1 8 C0.67 8 0.34 8 0 8 C0 5.36 0 2.72 0 0 Z " fill="#BCBCBC" transform="translate(520,53)"/>
<path d="M0 0 C3.875 1.75 3.875 1.75 5 4 C5.0716735 6.55157655 5.09308442 9.07472971 5.0625 11.625 C5.05798828 12.33140625 5.05347656 13.0378125 5.04882812 13.765625 C5.03703875 15.51045275 5.01910324 17.255237 5 19 C3.35 19.66 1.7 20.32 0 21 C0.66 17.37 1.32 13.74 2 10 C2.33 10 2.66 10 3 10 C2.41825155 4.6913151 2.41825155 4.6913151 0 0 Z " fill="#BDBDBD" transform="translate(157,11)"/>
<path d="M0 0 C1.2065625 0.0309375 1.2065625 0.0309375 2.4375 0.0625 C2.7675 1.3825 3.0975 2.7025 3.4375 4.0625 C2.798125 4.18625 2.15875 4.31 1.5 4.4375 C0.4790625 4.746875 0.4790625 4.746875 -0.5625 5.0625 C-0.8925 5.7225 -1.2225 6.3825 -1.5625 7.0625 C-2.5525 7.0625 -3.5425 7.0625 -4.5625 7.0625 C-3.5234375 0.0859375 -3.5234375 0.0859375 0 0 Z " fill="#F5F5F5" transform="translate(131.5625,99.9375)"/>
<path d="M0 0 C2.375 0.3125 2.375 0.3125 5 1 C5.66 1.99 6.32 2.98 7 4 C7.99 4 8.98 4 10 4 C9.67 4.99 9.34 5.98 9 7 C8.01 6.67 7.02 6.34 6 6 C5.34 6.66 4.68 7.32 4 8 C0 3.375 0 3.375 0 0 Z " fill="#B2B9B9" transform="translate(274,42)"/>
<path d="M0 0 C2.64 0 5.28 0 8 0 C8 1.32 8 2.64 8 4 C7.34 4 6.68 4 6 4 C5.34 5.32 4.68 6.64 4 8 C0 2.25 0 2.25 0 0 Z " fill="#AAAAAA" transform="translate(80,8)"/>
<path d="M0 0 C3.49084212 1.08336479 4.05521194 2.1047123 5.8125 5.4375 C7 9 7 9 6 12 C0.11816193 5.92560175 0.11816193 5.92560175 -0.375 2.0625 C-0.25125 1.381875 -0.1275 0.70125 0 0 Z " fill="#797979" transform="translate(134,44)"/>
<path d="M0 0 C3.67230705 3.07999946 4.56802365 5.2482602 5 10 C1.125 6.25 1.125 6.25 0 4 C-0.33 7.3 -0.66 10.6 -1 14 C-1.33 14 -1.66 14 -2 14 C-2 9.71 -2 5.42 -2 1 C-1.34 0.67 -0.68 0.34 0 0 Z " fill="#5D5D5D" transform="translate(99,39)"/>
<path d="M0 0 C1.32 0 2.64 0 4 0 C3.125 4.875 3.125 4.875 2 6 C0.31391034 6.07205511 -1.37500659 6.08386068 -3.0625 6.0625 C-3.98160156 6.05347656 -4.90070313 6.04445313 -5.84765625 6.03515625 C-6.55792969 6.02355469 -7.26820313 6.01195312 -8 6 C-8 5.67 -8 5.34 -8 5 C-6.02 5 -4.04 5 -2 5 C-1.34 3.35 -0.68 1.7 0 0 Z " fill="#939393" transform="translate(465,54)"/>
<path d="M0 0 C1.98 0.99 1.98 0.99 4 2 C4 2.66 4 3.32 4 4 C4.66 4 5.32 4 6 4 C6.33 2.68 6.66 1.36 7 0 C8.09658936 3.28976808 7.79953138 4.71303767 7 8 C5.68 8 4.36 8 3 8 C0 2.25 0 2.25 0 0 Z " fill="#7D7D7D" transform="translate(200,53)"/>
<path d="M0 0 C0.66 0.99 1.32 1.98 2 3 C4.20725073 3.36362818 4.20725073 3.36362818 6.625 3.1875 C7.44226563 3.16042969 8.25953125 3.13335937 9.1015625 3.10546875 C9.72804688 3.07066406 10.35453125 3.03585938 11 3 C11.66 4.32 12.32 5.64 13 7 C12.34 7 11.68 7 11 7 C10.67 6.34 10.34 5.68 10 5 C8.02 5 6.04 5 4 5 C3.67 5.66 3.34 6.32 3 7 C1.35 7 -0.3 7 -2 7 C-1.34 4.69 -0.68 2.38 0 0 Z " fill="#D4D4D4" transform="translate(429,54)"/>
<path d="M0 0 C1.32 0 2.64 0 4 0 C4.66 0.99 5.32 1.98 6 3 C6.99 3.33 7.98 3.66 9 4 C9 4.66 9 5.32 9 6 C3.375 6.25 3.375 6.25 0 4 C0 2.68 0 1.36 0 0 Z " fill="#999999" transform="translate(336,55)"/>
<path d="M0 0 C3.08089673 2.77280706 4.68775452 5.06326356 6 9 C5.01 9 4.02 9 3 9 C2.34 9.66 1.68 10.32 1 11 C0 10 0 10 -0.09765625 7.71484375 C-0.08605469 6.79832031 -0.07445313 5.88179687 -0.0625 4.9375 C-0.05347656 4.01839844 -0.04445313 3.09929688 -0.03515625 2.15234375 C-0.02355469 1.44207031 -0.01195313 0.73179688 0 0 Z " fill="#A7A7A7" transform="translate(98,42)"/>
<path d="M0 0 C4.29 0.99 8.58 1.98 13 3 C9 6 9 6 6.859375 6.07421875 C4.90625 5.71614583 2.953125 5.35807292 1 5 C0.67 3.35 0.34 1.7 0 0 Z " fill="#A2A2A2" transform="translate(168,95)"/>
<path d="M0 0 C0.33 0 0.66 0 1 0 C1 2.31 1 4.62 1 7 C1.99 7 2.98 7 4 7 C4 7.66 4 8.32 4 9 C3.34 9 2.68 9 2 9 C2 11.64 2 14.28 2 17 C1.34 17 0.68 17 0 17 C0 11.39 0 5.78 0 0 Z " fill="#494949" transform="translate(478,44)"/>
<path d="M0 0 C5.78461538 3.32307692 5.78461538 3.32307692 6.875 6.75 C6.936875 7.86375 6.936875 7.86375 7 9 C6.01 9.495 6.01 9.495 5 10 C5 9.34 5 8.68 5 8 C4.01 8 3.02 8 2 8 C1.34 5.36 0.68 2.72 0 0 Z " fill="#8A8A8A" transform="translate(116,17)"/>
<path d="M0 0 C1.875 0.1875 1.875 0.1875 4 1 C5.25 3.5625 5.25 3.5625 6 6 C4.34385343 6.38218767 2.67542976 6.71395102 1 7 C0 6 0 6 -0.0625 2.9375 C-0.041875 1.968125 -0.02125 0.99875 0 0 Z " fill="#EBEBEB" transform="translate(209,0)"/>
<path d="M0 0 C1.98 0 3.96 0 6 0 C6.33 1.32 6.66 2.64 7 4 C4.36 4.33 1.72 4.66 -1 5 C-0.67 3.35 -0.34 1.7 0 0 Z " fill="#E6E6E7" transform="translate(51,0)"/>
<path d="M0 0 C1.65 1.65 3.3 3.3 5 5 C4.34 5 3.68 5 3 5 C3 6.65 3 8.3 3 10 C0.59927045 7.11912454 -1.47291037 4.43595166 -3 1 C-2.01 0.67 -1.02 0.34 0 0 Z M1 3 C2 5 2 5 2 5 Z " fill="#C9C9C9" transform="translate(105,57)"/>
<path d="M0 0 C0.66 0 1.32 0 2 0 C2.33 0.99 2.66 1.98 3 3 C2.34 3.66 1.68 4.32 1 5 C0.59952556 7.32275177 0.2602896 9.65739357 0 12 C-0.33 12 -0.66 12 -1 12 C-1 10.02 -1 8.04 -1 6 C-1.66 6 -2.32 6 -3 6 C-2.42655063 3.13275314 -2.1385485 2.1385485 0 0 Z " fill="#9D9D9D" transform="translate(144,10)"/>
<path d="M0 0 C0.66 0 1.32 0 2 0 C3.25664978 2.90600261 4 4.79604584 4 8 C2.02 8 0.04 8 -2 8 C-1.125 2.25 -1.125 2.25 0 0 Z M0 4 C0 4.99 0 5.98 0 7 C0.66 7 1.32 7 2 7 C2 6.01 2 5.02 2 4 C1.34 4 0.68 4 0 4 Z " fill="#E0E0E0" transform="translate(435,47)"/>
<path d="M0 0 C0.33 0.66 0.66 1.32 1 2 C-0.3125 4.625 -0.3125 4.625 -2 7 C-2.66 7 -3.32 7 -4 7 C-4.33 7.99 -4.66 8.98 -5 10 C-5.99 10 -6.98 10 -8 10 C-8.99 10.495 -8.99 10.495 -10 11 C-9.3125 9.0625 -9.3125 9.0625 -8 7 C-7.175 6.855625 -6.35 6.71125 -5.5 6.5625 C-4.675 6.376875 -3.85 6.19125 -3 6 C-1.68931667 3.55711372 -1.68931667 3.55711372 -1 1 C-0.67 0.67 -0.34 0.34 0 0 Z " fill="#BBBBBB" transform="translate(156,39)"/>
<path d="M0 0 C0.99 0 1.98 0 3 0 C2.34 5.61 1.68 11.22 1 17 C0.67 17 0.34 17 0 17 C0 11.39 0 5.78 0 0 Z " fill="#4C4C4C" transform="translate(196,43)"/>
<path d="M0 0 C0.99 0.66 1.98 1.32 3 2 C2.34 3.65 1.68 5.3 1 7 C-2 6 -2 6 -5 4 C-4.0409375 3.8453125 -4.0409375 3.8453125 -3.0625 3.6875 C-2.381875 3.460625 -1.70125 3.23375 -1 3 C-0.67 2.01 -0.34 1.02 0 0 Z " fill="#B2B2B2" transform="translate(202,93)"/>
<path d="M0 0 C-2 1.33333333 -4 2.66666667 -6 4 C-6.72965366 6.56282742 -6.72965366 6.56282742 -7 9 C-7.66 9 -8.32 9 -9 9 C-9 6.69 -9 4.38 -9 2 C-5.86501708 0.14223235 -3.62528568 -0.20140476 0 0 Z " fill="#575757" transform="translate(198,81)"/>
<path d="M0 0 C0.66 1.32 1.32 2.64 2 4 C0.02 4.99 0.02 4.99 -2 6 C-1.67 6.99 -1.34 7.98 -1 9 C-1.99 9 -2.98 9 -4 9 C-4.66 7.68 -5.32 6.36 -6 5 C-5.195625 4.731875 -4.39125 4.46375 -3.5625 4.1875 C-2.716875 3.795625 -1.87125 3.40375 -1 3 C-0.67 2.01 -0.34 1.02 0 0 Z " fill="#5F5F5F" transform="translate(528,47)"/>
<path d="M0 0 C3 1 3 1 4 3 C4.07065617 5.04055005 4.08421976 7.08334257 4.0625 9.125 C4.05347656 10.22070312 4.04445312 11.31640625 4.03515625 12.4453125 C4.02355469 13.28835937 4.01195312 14.13140625 4 15 C3.67 15 3.34 15 3 15 C2.86722656 14.25234375 2.73445312 13.5046875 2.59765625 12.734375 C2.42105469 11.74953125 2.24445313 10.7646875 2.0625 9.75 C1.88847656 8.77546875 1.71445313 7.8009375 1.53515625 6.796875 C1.09620271 4.50278205 0.59651408 2.25708029 0 0 Z " fill="#525252" transform="translate(157,13)"/>
<path d="M0 0 C2.18975773 3.28463659 2.99806563 6.20696275 4 10 C2.68 9.67 1.36 9.34 0 9 C-1.10844919 5.67465243 -0.84454356 3.37817425 0 0 Z " fill="#A5A5A5" transform="translate(441,51)"/>
<path d="M0 0 C2.31 0.33 4.62 0.66 7 1 C6.67 3.64 6.34 6.28 6 9 C2.91910327 6.22719294 1.31224548 3.93673644 0 0 Z " fill="#D6D6D6" transform="translate(85,32)"/>
<path d="M0 0 C-0.66 1.65 -1.32 3.3 -2 5 C-3.65 5 -5.3 5 -7 5 C-6.34 4.34 -5.68 3.68 -5 3 C-5.99 2.34 -6.98 1.68 -8 1 C-5.07175348 0.02391783 -3.04386724 -0.08226668 0 0 Z " fill="#B6B6B6" transform="translate(67,52)"/>
<path d="M0 0 C2.375 -0.125 2.375 -0.125 5 0 C7 2 7 2 7 5 C5.35 4.67 3.7 4.34 2 4 C2 3.01 2 2.02 2 1 C1.34 0.67 0.68 0.34 0 0 Z " fill="#929292" transform="translate(462,44)"/>
<path d="M0 0 C3.3 0 6.6 0 10 0 C10 0.99 10 1.98 10 3 C8.72125 3.061875 7.4425 3.12375 6.125 3.1875 C5.40570313 3.22230469 4.68640625 3.25710937 3.9453125 3.29296875 C3.30335938 3.19628906 2.66140625 3.09960938 2 3 C1.34 2.01 0.68 1.02 0 0 Z " fill="#A5A5A5" transform="translate(358,42)"/>
<path d="M0 0 C1.65 1.65 3.3 3.3 5 5 C4.360625 5.28875 3.72125 5.5775 3.0625 5.875 C0.84793921 6.82823451 0.84793921 6.82823451 0 9 C0 6.03 0 3.06 0 0 Z " fill="#9C9C9C" transform="translate(76,9)"/>
<path d="M0 0 C0.66 0 1.32 0 2 0 C2 2.97 2 5.94 2 9 C1.01 9.33 0.02 9.66 -1 10 C-0.67 6.7 -0.34 3.4 0 0 Z " fill="#6B6B6B" transform="translate(204,86)"/>
<path d="M0 0 C3.16115776 1.36983503 3.9927092 1.9890638 6 5 C5.625 7.1875 5.625 7.1875 5 9 C4.16094435 7.87926138 3.32892169 6.75325453 2.5 5.625 C2.0359375 4.99851562 1.571875 4.37203125 1.09375 3.7265625 C0 2 0 2 0 0 Z " fill="#4E4E4E" transform="translate(109,56)"/>
<path d="M0 0 C1.32 0 2.64 0 4 0 C3.8125 2.375 3.8125 2.375 3 5 C0.4375 6.3125 0.4375 6.3125 -2 7 C-1.125 2.25 -1.125 2.25 0 0 Z " fill="#9E9E9E" transform="translate(434,42)"/>
<path d="M0 0 C0.99 0 1.98 0 3 0 C3.12375 0.61875 3.2475 1.2375 3.375 1.875 C3.87197356 4.19120832 3.87197356 4.19120832 6 6 C2.125 5.125 2.125 5.125 1 4 C0.67 4.99 0.34 5.98 0 7 C-0.38133299 5.0085944 -0.71325582 3.00720923 -1 1 C-0.67 0.67 -0.34 0.34 0 0 Z " fill="#D3D3D3" transform="translate(58,58)"/>
<path d="M0 0 C2 0 2 0 3.64453125 1.20703125 C5 3 5 3 5.07421875 5.26171875 C4.94660156 6.06222656 4.81898438 6.86273438 4.6875 7.6875 C4.50767578 8.89986328 4.50767578 8.89986328 4.32421875 10.13671875 C4.21722656 10.75160156 4.11023438 11.36648437 4 12 C3.67 12 3.34 12 3 12 C2 8 1 4 0 0 Z " fill="#4B4B4B" transform="translate(226,48)"/>
<path d="M0 0 C1.32 0.33 2.64 0.66 4 1 C4.33 2.65 4.66 4.3 5 6 C4.01 6 3.02 6 2 6 C0 3 0 3 0 0 Z " fill="#7A7A7A" transform="translate(129,37)"/>
<path d="M0 0 C3 1 3 1 5 4 C4.625 6.1875 4.625 6.1875 4 8 C0 2.25 0 2.25 0 0 Z " fill="#4D4D4D" transform="translate(119,71)"/>
<path d="M0 0 C4 4.625 4 4.625 4 8 C2.35 6.68 0.7 5.36 -1 4 C-0.67 2.68 -0.34 1.36 0 0 Z " fill="#A1A1A1" transform="translate(107,55)"/>
<path d="M0 0 C0.33 0 0.66 0 1 0 C1.33 2.64 1.66 5.28 2 8 C0.68 8.99 -0.64 9.98 -2 11 C-1.34 7.37 -0.68 3.74 0 0 Z " fill="#A0A0A0" transform="translate(159,21)"/>
<path d="M0 0 C4 0 4 0 5.75 1.5 C6.1625 1.995 6.575 2.49 7 3 C6.67 3.66 6.34 4.32 6 5 C5.67 4.67 5.34 4.34 5 4 C4.34 4.66 3.68 5.32 3 6 C2.01 4.02 1.02 2.04 0 0 Z " fill="#B4B4B4" transform="translate(119,25)"/>
<path d="M0 0 C1.37562854 1.28965176 2.70766393 2.62689293 4 4 C4 4.66 4 5.32 4 6 C2.68 5.67 1.36 5.34 0 5 C-0.5625 3.0625 -0.5625 3.0625 -1 1 C-0.67 0.67 -0.34 0.34 0 0 Z " fill="#706F71" transform="translate(79,96)"/>
<path d="M0 0 C0.33 1.32 0.66 2.64 1 4 C0.34 4 -0.32 4 -1 4 C-0.34 5.98 0.32 7.96 1 10 C-1.28773145 8.18887927 -1.95209822 7.39279457 -2.3125 4.4375 C-2 2 -2 2 0 0 Z " fill="#EDEDED" transform="translate(81,89)"/>
<path d="M0 0 C0.66 0 1.32 0 2 0 C1.67 1.32 1.34 2.64 1 4 C0.67 2.68 0.34 1.36 0 0 Z " fill="#F7F7F7" transform="translate(489,0)"/>
<path d="M0 0 C1.65 0 3.3 0 5 0 C4.01 0.66 3.02 1.32 2 2 C1.34 1.34 0.68 0.68 0 0 Z " fill="#D4D4D4" transform="translate(494,0)"/>
<path d="M0 0 C1.32 0.33 2.64 0.66 4 1 C3.01 1.33 2.02 1.66 1 2 C0.67 1.34 0.34 0.68 0 0 Z " fill="#CCCCCC" transform="translate(545,0)"/>
<path d="M0 0 C1.32 0.33 2.64 0.66 4 1 C3.01 1.495 3.01 1.495 2 2 C1.34 1.34 0.68 0.68 0 0 Z " fill="#CCCCCC" transform="translate(214,0)"/>
<path d="M0 0 C0.66 0 1.32 0 2 0 C2 0.66 2 1.32 2 2 C1.34 2 0.68 2 0 2 C0 1.34 0 0.68 0 0 Z " fill="#FFFFFF" transform="translate(349,106)"/>
<path d="M0 0 C4 1 4 1 4 1 Z " fill="#FFFFFF" transform="translate(509,0)"/>
<path d="M0 0 C0.66 0 1.32 0 2 0 C1.67 0.66 1.34 1.32 1 2 C0.67 1.34 0.34 0.68 0 0 Z " fill="#FFFFFF" transform="translate(539,0)"/>
<path d="M0 0 C3 1 3 1 3 1 Z " fill="#AAAAAA" transform="translate(524,0)"/>
<path d="M0 0 C3 1 3 1 3 1 Z " fill="#FFFFFF" transform="translate(518,0)"/>
<path d="M0 0 C0.99 0.495 0.99 0.495 2 1 C1.01 1.495 1.01 1.495 0 2 C0 1.34 0 0.68 0 0 Z " fill="#FFFFFF" transform="translate(503,0)"/>
<path d="" fill="#FFFFFF" transform="translate(0,0)"/>
<path d="M0 0 C2 1 2 1 2 1 Z " fill="#7F7F7F" transform="translate(533,0)"/>
<path d="" fill="#FFFFFF" transform="translate(0,0)"/>
<path d="" fill="#FFFFFF" transform="translate(0,0)"/>
</svg>
